<svg width="54" height="54" viewBox="0 0 54 54" fill="none" xmlns="http://www.w3.org/2000/svg">
    <path fill-rule="evenodd" clip-rule="evenodd" d="M10.1125 32.7458L13.6125 38.7833C13.8458 39.1625 14.2833 39.3083 14.6916 39.1625L19.0375 37.4125C19.9416 38.1125 20.9041 38.6958 21.9833 39.1333L22.625 43.7708C22.7125 44.1792 23.0625 44.5 23.5 44.5H30.5C30.9375 44.5 31.2875 44.1792 31.375 43.7417L32.0166 39.1042C33.0666 38.6667 34.0583 38.0833 34.9625 37.3833L39.3083 39.1333C39.7166 39.2792 40.1541 39.1333 40.3875 38.7542L43.8875 32.7167C44.1208 32.3375 44.0041 31.8708 43.6833 31.5792L39.9791 28.6917C40.0667 28.1375 40.0958 27.5542 40.0958 27C40.0958 26.4167 40.0375 25.8625 39.9791 25.2792L43.6833 22.3917C44.0041 22.1292 44.1208 21.6333 43.8875 21.2542L40.3875 15.2167C40.1541 14.8375 39.7166 14.6917 39.3083 14.8375L34.9625 16.5875C34.0583 15.8875 33.0958 15.3042 32.0166 14.8667L31.375 10.2292C31.2875 9.82083 30.9375 9.5 30.5 9.5H23.5C23.0625 9.5 22.7125 9.82083 22.625 10.2583L21.9833 14.8958C20.9333 15.3333 19.9125 15.8875 19.0375 16.5875L14.6916 14.8375C14.2833 14.6917 13.8458 14.8375 13.6125 15.2167L10.1125 21.2542C9.87915 21.6333 9.99581 22.1 10.3166 22.3917L14.0208 25.2792C13.9333 25.8625 13.875 26.4167 13.875 27C13.875 27.5833 13.9333 28.1375 13.9916 28.7208L10.2875 31.6083C9.96665 31.9 9.87915 32.3667 10.1125 32.7458ZM26.9999 22.0125C29.7416 22.0125 31.9874 24.2583 31.9874 27C31.9874 29.7417 29.7416 31.9875 26.9999 31.9875C24.2583 31.9875 22.0124 29.7417 22.0124 27C22.0124 24.2583 24.2583 22.0125 26.9999 22.0125ZM47.4167 0.75H6.58333C3.34583 0.75 0.75 3.375 0.75 6.58333V47.4167C0.75 50.625 3.34583 53.25 6.58333 53.25H47.4167C50.6542 53.25 53.25 50.625 53.25 47.4167V6.58333C53.25 3.375 50.6542 0.75 47.4167 0.75ZM47.4166 47.4167H6.58324V6.58334H47.4166V47.4167Z" fill="#007BFF"/>
    <g transform="translate(4 4)"><path fill-rule="evenodd" clip-rule="evenodd" d="M45.5 0.5H0.5V38H45.5V0.5ZM23 29.25C27.1421 29.25 30.5 26.4518 30.5 23C30.5 19.5482 27.1421 16.75 23 16.75C18.8579 16.75 15.5 19.5482 15.5 23C15.5 26.4518 18.8579 29.25 23 29.25Z" fill="#007BFF" fill-opacity="0.2"/></g>
</svg>