<svg width="24" height="27" viewBox="0 0 24 27" fill="none" xmlns="http://www.w3.org/2000/svg">
    <path fill-rule="evenodd" clip-rule="evenodd" d="M20.75 0.5H3.25C1.875 0.5 0.75 1.625 0.75 3V20.5C0.75 21.875 1.875 23 3.25 23H8.25L12 26.75L15.75 23H20.75C22.125 23 23.25 21.875 23.25 20.5V3C23.25 1.625 22.125 0.5 20.75 0.5ZM20.75 20.5H14.7125L12 23.2125L9.2875 20.5H3.25V3H20.75V20.5ZM12 19.25L14.35 14.1L19.5 11.75L14.35 9.4L12 4.25L9.65 9.4L4.5 11.75L9.65 14.1L12 19.25Z" fill="#FD7E14"/>
    <g transform="translate(2 2)">
        <path d="M19.375 0.75H0.625V19.5H6.47748L6.25 19.7275L10.2275 23.705L14.205 19.7275L13.9775 19.5H19.375V0.75Z" fill="#FD7E14" fill-opacity="0.2"/>
    </g>
</svg>