<svg width="24" height="24" viewBox="0 0 24 24" fill="none" xmlns="http://www.w3.org/2000/svg">
    <path fill-rule="evenodd" clip-rule="evenodd" d="M20.75 0.75C22.125 0.75 23.25 1.875 23.25 3.25V20.75C23.25 22.125 22.125 23.25 20.75 23.25H3.25C1.875 23.25 0.75 22.125 0.75 20.75V3.25C0.75 1.875 1.875 0.75 3.25 0.75H20.75ZM20.75 20.75V3.25H3.25V20.75H20.75ZM6.375 19.5C5.33947 19.5 4.5 18.6605 4.5 17.625C4.5 16.5895 5.33947 15.75 6.375 15.75C7.41053 15.75 8.25 16.5895 8.25 17.625C8.25 18.6605 7.41053 19.5 6.375 19.5ZM6.375 8.25C5.33947 8.25 4.5 7.41053 4.5 6.375C4.5 5.33947 5.33947 4.5 6.375 4.5C7.41053 4.5 8.25 5.33947 8.25 6.375C8.25 7.41053 7.41053 8.25 6.375 8.25ZM12 13.875C10.9645 13.875 10.125 13.0355 10.125 12C10.125 10.9645 10.9645 10.125 12 10.125C13.0355 10.125 13.875 10.9645 13.875 12C13.875 13.0355 13.0355 13.875 12 13.875ZM17.625 19.5C16.5895 19.5 15.75 18.6605 15.75 17.625C15.75 16.5895 16.5895 15.75 17.625 15.75C18.6605 15.75 19.5 16.5895 19.5 17.625C19.5 18.6605 18.6605 19.5 17.625 19.5ZM17.625 8.25C16.5895 8.25 15.75 7.41053 15.75 6.375C15.75 5.33947 16.5895 4.5 17.625 4.5C18.6605 4.5 19.5 5.33947 19.5 6.375C19.5 7.41053 18.6605 8.25 17.625 8.25Z" fill="#FE6746"/>
    <rect x="3" y="2.2" width="18.75" height="15" fill="#FE6746" fill-opacity="0.2"/>
</svg>