<svg width="24" height="24" viewBox="0 0 24 24" fill="none" xmlns="http://www.w3.org/2000/svg">
    <path fill-rule="evenodd" clip-rule="evenodd" d="M3.81818 2.625C3.25335 2.625 2.79545 3.04473 2.79545 3.5625V7.3125C2.79545 7.83027 3.25335 8.25 3.81818 8.25H20.1818C20.7467 8.25 21.2045 7.83027 21.2045 7.3125V3.5625C21.2045 3.04473 20.7467 2.625 20.1818 2.625H3.81818ZM0.75 3.5625C0.75 2.0092 2.12367 0.75 3.81818 0.75H20.1818C21.8763 0.75 23.25 2.0092 23.25 3.5625V7.3125C23.25 8.8658 21.8763 10.125 20.1818 10.125H3.81818C2.12367 10.125 0.75 8.8658 0.75 7.3125V3.5625Z" fill="#5867DD"/>
    <path fill-rule="evenodd" clip-rule="evenodd" d="M3.81818 15.75C3.25335 15.75 2.79545 16.1697 2.79545 16.6875V20.4375C2.79545 20.9553 3.25335 21.375 3.81818 21.375H20.1818C20.7467 21.375 21.2045 20.9553 21.2045 20.4375V16.6875C21.2045 16.1697 20.7467 15.75 20.1818 15.75H3.81818ZM0.75 16.6875C0.75 15.1342 2.12367 13.875 3.81818 13.875H20.1818C21.8763 13.875 23.25 15.1342 23.25 16.6875V20.4375C23.25 21.9908 21.8763 23.25 20.1818 23.25H3.81818C2.12367 23.25 0.75 21.9908 0.75 20.4375V16.6875Z" fill="#5867DD"/>
    <g transform="translate(2 2)">
        <path height="24" d="M0.625 0.625H19.375V6.25H0.625V0.625Z" fill="#5867DD" fill-opacity="0.2"/>
        <path d="M0.625 13.75H19.375V19.375H0.625V13.75Z" fill="#5867DD" fill-opacity="0.2"/>
    </g>
</svg>